<mxfile host="app.diagrams.net" modified="2023-11-04T02:52:57.096Z" agent="Mozilla/5.0 (Macintosh; Intel Mac OS X 10_15_7) AppleWebKit/537.36 (KHTML, like Gecko) Chrome/118.0.0.0 Safari/537.36" etag="Zk-YWsEbmpgaiqLo2IRC" version="22.0.8" type="device">
  <diagram name="Page-1" id="edf60f1a-56cd-e834-aa8a-f176f3a09ee4">
    <mxGraphModel dx="1578" dy="1000" grid="0" gridSize="10" guides="1" tooltips="1" connect="1" arrows="1" fold="1" page="1" pageScale="1" pageWidth="1169" pageHeight="1654" background="none" math="0" shadow="0">
      <root>
        <mxCell id="0" />
        <mxCell id="1" parent="0" />
        <mxCell id="TrUgmV-_xeEdXhBJ6L5U-3" style="edgeStyle=orthogonalEdgeStyle;rounded=0;orthogonalLoop=1;jettySize=auto;html=1;exitX=0.5;exitY=1;exitDx=0;exitDy=0;entryX=0.5;entryY=0;entryDx=0;entryDy=0;" edge="1" parent="1" source="TrUgmV-_xeEdXhBJ6L5U-1" target="TrUgmV-_xeEdXhBJ6L5U-2">
          <mxGeometry relative="1" as="geometry" />
        </mxCell>
        <mxCell id="TrUgmV-_xeEdXhBJ6L5U-1" value="Start" style="ellipse;whiteSpace=wrap;html=1;" vertex="1" parent="1">
          <mxGeometry x="317" y="130" width="120" height="50" as="geometry" />
        </mxCell>
        <mxCell id="TrUgmV-_xeEdXhBJ6L5U-7" style="edgeStyle=orthogonalEdgeStyle;rounded=0;orthogonalLoop=1;jettySize=auto;html=1;exitX=1;exitY=0.5;exitDx=0;exitDy=0;" edge="1" parent="1" source="TrUgmV-_xeEdXhBJ6L5U-2" target="TrUgmV-_xeEdXhBJ6L5U-8">
          <mxGeometry relative="1" as="geometry">
            <mxPoint x="607" y="249.5" as="targetPoint" />
            <mxPoint x="687" y="250" as="sourcePoint" />
          </mxGeometry>
        </mxCell>
        <mxCell id="TrUgmV-_xeEdXhBJ6L5U-29" style="edgeStyle=orthogonalEdgeStyle;rounded=0;orthogonalLoop=1;jettySize=auto;html=1;exitX=0;exitY=0.5;exitDx=0;exitDy=0;entryX=1;entryY=0.5;entryDx=0;entryDy=0;" edge="1" parent="1" source="TrUgmV-_xeEdXhBJ6L5U-2" target="TrUgmV-_xeEdXhBJ6L5U-5">
          <mxGeometry relative="1" as="geometry" />
        </mxCell>
        <mxCell id="TrUgmV-_xeEdXhBJ6L5U-2" value="New User" style="rhombus;whiteSpace=wrap;html=1;" vertex="1" parent="1">
          <mxGeometry x="337" y="220" width="80" height="80" as="geometry" />
        </mxCell>
        <mxCell id="TrUgmV-_xeEdXhBJ6L5U-5" value="User Registration" style="rounded=0;whiteSpace=wrap;html=1;" vertex="1" parent="1">
          <mxGeometry x="130" y="230" width="120" height="60" as="geometry" />
        </mxCell>
        <mxCell id="TrUgmV-_xeEdXhBJ6L5U-13" style="edgeStyle=orthogonalEdgeStyle;rounded=0;orthogonalLoop=1;jettySize=auto;html=1;exitX=0.5;exitY=1;exitDx=0;exitDy=0;entryX=0.5;entryY=0;entryDx=0;entryDy=0;" edge="1" parent="1" source="TrUgmV-_xeEdXhBJ6L5U-8" target="TrUgmV-_xeEdXhBJ6L5U-11">
          <mxGeometry relative="1" as="geometry" />
        </mxCell>
        <mxCell id="TrUgmV-_xeEdXhBJ6L5U-32" style="edgeStyle=orthogonalEdgeStyle;rounded=0;orthogonalLoop=1;jettySize=auto;html=1;exitX=1;exitY=0.5;exitDx=0;exitDy=0;entryX=0;entryY=0.5;entryDx=0;entryDy=0;" edge="1" parent="1" source="TrUgmV-_xeEdXhBJ6L5U-8" target="TrUgmV-_xeEdXhBJ6L5U-31">
          <mxGeometry relative="1" as="geometry" />
        </mxCell>
        <mxCell id="TrUgmV-_xeEdXhBJ6L5U-8" value="User Authentication" style="rounded=0;whiteSpace=wrap;html=1;" vertex="1" parent="1">
          <mxGeometry x="494" y="229" width="120" height="60" as="geometry" />
        </mxCell>
        <mxCell id="TrUgmV-_xeEdXhBJ6L5U-9" value="Yes" style="text;html=1;align=center;verticalAlign=middle;resizable=0;points=[];autosize=1;strokeColor=none;fillColor=none;" vertex="1" parent="1">
          <mxGeometry x="277" y="222" width="40" height="30" as="geometry" />
        </mxCell>
        <mxCell id="TrUgmV-_xeEdXhBJ6L5U-14" style="edgeStyle=orthogonalEdgeStyle;rounded=0;orthogonalLoop=1;jettySize=auto;html=1;exitX=0.5;exitY=1;exitDx=0;exitDy=0;entryX=0.5;entryY=0;entryDx=0;entryDy=0;" edge="1" parent="1" source="TrUgmV-_xeEdXhBJ6L5U-11" target="TrUgmV-_xeEdXhBJ6L5U-12">
          <mxGeometry relative="1" as="geometry" />
        </mxCell>
        <mxCell id="TrUgmV-_xeEdXhBJ6L5U-11" value="Browse Events" style="rounded=0;whiteSpace=wrap;html=1;" vertex="1" parent="1">
          <mxGeometry x="494" y="340" width="120" height="60" as="geometry" />
        </mxCell>
        <mxCell id="TrUgmV-_xeEdXhBJ6L5U-16" style="edgeStyle=orthogonalEdgeStyle;rounded=0;orthogonalLoop=1;jettySize=auto;html=1;exitX=0.5;exitY=1;exitDx=0;exitDy=0;entryX=0.5;entryY=0;entryDx=0;entryDy=0;" edge="1" parent="1" source="TrUgmV-_xeEdXhBJ6L5U-12" target="TrUgmV-_xeEdXhBJ6L5U-15">
          <mxGeometry relative="1" as="geometry" />
        </mxCell>
        <mxCell id="TrUgmV-_xeEdXhBJ6L5U-12" value="Event Selection" style="rounded=0;whiteSpace=wrap;html=1;" vertex="1" parent="1">
          <mxGeometry x="494" y="470" width="120" height="60" as="geometry" />
        </mxCell>
        <mxCell id="TrUgmV-_xeEdXhBJ6L5U-66" style="edgeStyle=orthogonalEdgeStyle;rounded=0;orthogonalLoop=1;jettySize=auto;html=1;exitX=1;exitY=0.5;exitDx=0;exitDy=0;entryX=0;entryY=0.5;entryDx=0;entryDy=0;" edge="1" parent="1" source="TrUgmV-_xeEdXhBJ6L5U-15" target="TrUgmV-_xeEdXhBJ6L5U-17">
          <mxGeometry relative="1" as="geometry" />
        </mxCell>
        <mxCell id="TrUgmV-_xeEdXhBJ6L5U-67" style="edgeStyle=orthogonalEdgeStyle;rounded=0;orthogonalLoop=1;jettySize=auto;html=1;exitX=0;exitY=0.5;exitDx=0;exitDy=0;entryX=0;entryY=0.25;entryDx=0;entryDy=0;" edge="1" parent="1" source="TrUgmV-_xeEdXhBJ6L5U-15" target="TrUgmV-_xeEdXhBJ6L5U-12">
          <mxGeometry relative="1" as="geometry" />
        </mxCell>
        <mxCell id="TrUgmV-_xeEdXhBJ6L5U-15" value="Tickets Available" style="rhombus;whiteSpace=wrap;html=1;" vertex="1" parent="1">
          <mxGeometry x="494" y="570" width="120" height="120" as="geometry" />
        </mxCell>
        <mxCell id="TrUgmV-_xeEdXhBJ6L5U-22" style="edgeStyle=orthogonalEdgeStyle;rounded=0;orthogonalLoop=1;jettySize=auto;html=1;exitX=0.5;exitY=1;exitDx=0;exitDy=0;entryX=0.5;entryY=0;entryDx=0;entryDy=0;" edge="1" parent="1" source="TrUgmV-_xeEdXhBJ6L5U-17" target="TrUgmV-_xeEdXhBJ6L5U-18">
          <mxGeometry relative="1" as="geometry" />
        </mxCell>
        <mxCell id="TrUgmV-_xeEdXhBJ6L5U-17" value="Ticket Booking" style="rounded=0;whiteSpace=wrap;html=1;" vertex="1" parent="1">
          <mxGeometry x="789" y="600" width="120" height="60" as="geometry" />
        </mxCell>
        <mxCell id="TrUgmV-_xeEdXhBJ6L5U-23" style="edgeStyle=orthogonalEdgeStyle;rounded=0;orthogonalLoop=1;jettySize=auto;html=1;exitX=0.5;exitY=1;exitDx=0;exitDy=0;entryX=0.5;entryY=0;entryDx=0;entryDy=0;" edge="1" parent="1" target="TrUgmV-_xeEdXhBJ6L5U-19">
          <mxGeometry relative="1" as="geometry">
            <mxPoint x="852" y="770" as="sourcePoint" />
          </mxGeometry>
        </mxCell>
        <mxCell id="TrUgmV-_xeEdXhBJ6L5U-18" value="Order Management" style="rounded=0;whiteSpace=wrap;html=1;" vertex="1" parent="1">
          <mxGeometry x="789" y="710" width="120" height="60" as="geometry" />
        </mxCell>
        <mxCell id="TrUgmV-_xeEdXhBJ6L5U-25" style="edgeStyle=orthogonalEdgeStyle;rounded=0;orthogonalLoop=1;jettySize=auto;html=1;exitX=0.5;exitY=1;exitDx=0;exitDy=0;" edge="1" parent="1" source="TrUgmV-_xeEdXhBJ6L5U-19">
          <mxGeometry relative="1" as="geometry">
            <mxPoint x="852" y="930" as="targetPoint" />
          </mxGeometry>
        </mxCell>
        <mxCell id="TrUgmV-_xeEdXhBJ6L5U-69" style="edgeStyle=orthogonalEdgeStyle;rounded=0;orthogonalLoop=1;jettySize=auto;html=1;exitX=0;exitY=0.5;exitDx=0;exitDy=0;entryX=1;entryY=0.5;entryDx=0;entryDy=0;" edge="1" parent="1" source="TrUgmV-_xeEdXhBJ6L5U-19" target="TrUgmV-_xeEdXhBJ6L5U-35">
          <mxGeometry relative="1" as="geometry" />
        </mxCell>
        <mxCell id="TrUgmV-_xeEdXhBJ6L5U-19" value="Event Attendance" style="rounded=0;whiteSpace=wrap;html=1;" vertex="1" parent="1">
          <mxGeometry x="792" y="820" width="120" height="60" as="geometry" />
        </mxCell>
        <mxCell id="TrUgmV-_xeEdXhBJ6L5U-30" style="edgeStyle=orthogonalEdgeStyle;rounded=0;orthogonalLoop=1;jettySize=auto;html=1;exitX=0.5;exitY=1;exitDx=0;exitDy=0;" edge="1" parent="1" source="TrUgmV-_xeEdXhBJ6L5U-24">
          <mxGeometry relative="1" as="geometry">
            <mxPoint x="852" y="1050" as="targetPoint" />
          </mxGeometry>
        </mxCell>
        <mxCell id="TrUgmV-_xeEdXhBJ6L5U-24" value="Reviews" style="rounded=0;whiteSpace=wrap;html=1;" vertex="1" parent="1">
          <mxGeometry x="792" y="930" width="120" height="60" as="geometry" />
        </mxCell>
        <mxCell id="TrUgmV-_xeEdXhBJ6L5U-33" style="edgeStyle=orthogonalEdgeStyle;rounded=0;orthogonalLoop=1;jettySize=auto;html=1;entryX=1;entryY=0.5;entryDx=0;entryDy=0;exitX=0.5;exitY=1;exitDx=0;exitDy=0;" edge="1" parent="1" source="TrUgmV-_xeEdXhBJ6L5U-72" target="TrUgmV-_xeEdXhBJ6L5U-31">
          <mxGeometry relative="1" as="geometry">
            <mxPoint x="1020" y="570" as="targetPoint" />
            <mxPoint x="906.9230769230771" y="1105.0769230769229" as="sourcePoint" />
            <Array as="points">
              <mxPoint x="855" y="1173" />
              <mxPoint x="1060" y="1173" />
              <mxPoint x="1060" y="259" />
            </Array>
          </mxGeometry>
        </mxCell>
        <mxCell id="TrUgmV-_xeEdXhBJ6L5U-28" value="No" style="text;html=1;align=center;verticalAlign=middle;resizable=0;points=[];autosize=1;strokeColor=none;fillColor=none;" vertex="1" parent="1">
          <mxGeometry x="427" y="228" width="40" height="30" as="geometry" />
        </mxCell>
        <mxCell id="TrUgmV-_xeEdXhBJ6L5U-31" value="Notification" style="rounded=0;whiteSpace=wrap;html=1;" vertex="1" parent="1">
          <mxGeometry x="774" y="229" width="120" height="60" as="geometry" />
        </mxCell>
        <mxCell id="TrUgmV-_xeEdXhBJ6L5U-41" style="edgeStyle=orthogonalEdgeStyle;rounded=0;orthogonalLoop=1;jettySize=auto;html=1;exitX=0.5;exitY=1;exitDx=0;exitDy=0;entryX=0.5;entryY=0;entryDx=0;entryDy=0;" edge="1" parent="1" source="TrUgmV-_xeEdXhBJ6L5U-35" target="TrUgmV-_xeEdXhBJ6L5U-36">
          <mxGeometry relative="1" as="geometry" />
        </mxCell>
        <mxCell id="TrUgmV-_xeEdXhBJ6L5U-58" style="edgeStyle=orthogonalEdgeStyle;rounded=0;orthogonalLoop=1;jettySize=auto;html=1;exitX=0;exitY=0.5;exitDx=0;exitDy=0;" edge="1" parent="1" source="TrUgmV-_xeEdXhBJ6L5U-35">
          <mxGeometry relative="1" as="geometry">
            <mxPoint x="297" y="1202" as="targetPoint" />
          </mxGeometry>
        </mxCell>
        <mxCell id="TrUgmV-_xeEdXhBJ6L5U-35" value="Venues" style="rounded=0;whiteSpace=wrap;html=1;" vertex="1" parent="1">
          <mxGeometry x="460" y="820" width="120" height="60" as="geometry" />
        </mxCell>
        <mxCell id="TrUgmV-_xeEdXhBJ6L5U-42" style="edgeStyle=orthogonalEdgeStyle;rounded=0;orthogonalLoop=1;jettySize=auto;html=1;exitX=0.5;exitY=1;exitDx=0;exitDy=0;entryX=0.5;entryY=0;entryDx=0;entryDy=0;" edge="1" parent="1" source="TrUgmV-_xeEdXhBJ6L5U-36" target="TrUgmV-_xeEdXhBJ6L5U-37">
          <mxGeometry relative="1" as="geometry" />
        </mxCell>
        <mxCell id="TrUgmV-_xeEdXhBJ6L5U-43" style="edgeStyle=orthogonalEdgeStyle;rounded=0;orthogonalLoop=1;jettySize=auto;html=1;exitX=0.5;exitY=1;exitDx=0;exitDy=0;entryX=0.5;entryY=0;entryDx=0;entryDy=0;" edge="1" parent="1" source="TrUgmV-_xeEdXhBJ6L5U-36" target="TrUgmV-_xeEdXhBJ6L5U-38">
          <mxGeometry relative="1" as="geometry" />
        </mxCell>
        <mxCell id="TrUgmV-_xeEdXhBJ6L5U-36" value="Sponsors" style="rounded=0;whiteSpace=wrap;html=1;" vertex="1" parent="1">
          <mxGeometry x="460" y="920" width="120" height="60" as="geometry" />
        </mxCell>
        <mxCell id="TrUgmV-_xeEdXhBJ6L5U-37" value="Reports" style="rounded=0;whiteSpace=wrap;html=1;" vertex="1" parent="1">
          <mxGeometry x="362" y="1063" width="120" height="60" as="geometry" />
        </mxCell>
        <mxCell id="TrUgmV-_xeEdXhBJ6L5U-38" value="Event categorization" style="rounded=0;whiteSpace=wrap;html=1;" vertex="1" parent="1">
          <mxGeometry x="535" y="1063" width="120" height="60" as="geometry" />
        </mxCell>
        <mxCell id="TrUgmV-_xeEdXhBJ6L5U-47" value="Yes" style="text;html=1;align=center;verticalAlign=middle;resizable=0;points=[];autosize=1;strokeColor=none;fillColor=none;" vertex="1" parent="1">
          <mxGeometry x="650" y="600" width="40" height="30" as="geometry" />
        </mxCell>
        <mxCell id="TrUgmV-_xeEdXhBJ6L5U-54" style="edgeStyle=orthogonalEdgeStyle;rounded=0;orthogonalLoop=1;jettySize=auto;html=1;exitX=0;exitY=0.5;exitDx=0;exitDy=0;entryX=0.5;entryY=0;entryDx=0;entryDy=0;" edge="1" parent="1" source="TrUgmV-_xeEdXhBJ6L5U-48" target="TrUgmV-_xeEdXhBJ6L5U-49">
          <mxGeometry relative="1" as="geometry" />
        </mxCell>
        <mxCell id="TrUgmV-_xeEdXhBJ6L5U-56" style="edgeStyle=orthogonalEdgeStyle;rounded=0;orthogonalLoop=1;jettySize=auto;html=1;exitX=1;exitY=0.5;exitDx=0;exitDy=0;entryX=0.5;entryY=0;entryDx=0;entryDy=0;" edge="1" parent="1" source="TrUgmV-_xeEdXhBJ6L5U-48" target="TrUgmV-_xeEdXhBJ6L5U-50">
          <mxGeometry relative="1" as="geometry" />
        </mxCell>
        <mxCell id="TrUgmV-_xeEdXhBJ6L5U-48" value="New Event Organized?" style="rhombus;whiteSpace=wrap;html=1;" vertex="1" parent="1">
          <mxGeometry x="140" y="1050" width="95" height="105" as="geometry" />
        </mxCell>
        <mxCell id="TrUgmV-_xeEdXhBJ6L5U-49" value="Event Creation" style="rounded=0;whiteSpace=wrap;html=1;" vertex="1" parent="1">
          <mxGeometry x="40" y="1202.5" width="120" height="60" as="geometry" />
        </mxCell>
        <mxCell id="TrUgmV-_xeEdXhBJ6L5U-68" style="edgeStyle=orthogonalEdgeStyle;rounded=0;orthogonalLoop=1;jettySize=auto;html=1;exitX=0.5;exitY=1;exitDx=0;exitDy=0;entryX=0.5;entryY=0;entryDx=0;entryDy=0;" edge="1" parent="1" source="TrUgmV-_xeEdXhBJ6L5U-50" target="TrUgmV-_xeEdXhBJ6L5U-52">
          <mxGeometry relative="1" as="geometry" />
        </mxCell>
        <mxCell id="TrUgmV-_xeEdXhBJ6L5U-50" value="Event Management" style="rounded=0;whiteSpace=wrap;html=1;" vertex="1" parent="1">
          <mxGeometry x="217" y="1202.5" width="120" height="60" as="geometry" />
        </mxCell>
        <mxCell id="TrUgmV-_xeEdXhBJ6L5U-52" value="End" style="ellipse;whiteSpace=wrap;html=1;" vertex="1" parent="1">
          <mxGeometry x="217" y="1340" width="120" height="50" as="geometry" />
        </mxCell>
        <mxCell id="TrUgmV-_xeEdXhBJ6L5U-55" value="Yes" style="text;html=1;align=center;verticalAlign=middle;resizable=0;points=[];autosize=1;strokeColor=none;fillColor=none;" vertex="1" parent="1">
          <mxGeometry x="100" y="1078" width="40" height="30" as="geometry" />
        </mxCell>
        <mxCell id="TrUgmV-_xeEdXhBJ6L5U-57" value="No" style="text;html=1;align=center;verticalAlign=middle;resizable=0;points=[];autosize=1;strokeColor=none;fillColor=none;" vertex="1" parent="1">
          <mxGeometry x="230" y="1078" width="40" height="30" as="geometry" />
        </mxCell>
        <mxCell id="TrUgmV-_xeEdXhBJ6L5U-62" value="No" style="text;html=1;align=center;verticalAlign=middle;resizable=0;points=[];autosize=1;strokeColor=none;fillColor=none;" vertex="1" parent="1">
          <mxGeometry x="437" y="560" width="40" height="30" as="geometry" />
        </mxCell>
        <mxCell id="TrUgmV-_xeEdXhBJ6L5U-72" value="Message" style="shape=parallelogram;perimeter=parallelogramPerimeter;whiteSpace=wrap;html=1;fixedSize=1;" vertex="1" parent="1">
          <mxGeometry x="795" y="1050" width="120" height="60" as="geometry" />
        </mxCell>
      </root>
    </mxGraphModel>
  </diagram>
</mxfile>
